<svg xmlns="http://www.w3.org/2000/svg" xmlns:xlink="http://www.w3.org/1999/xlink" viewBox="0,0,256,256" width="48px" height="48px" fill-rule="nonzero"><g fill="#000000" fill-rule="nonzero" stroke="none" stroke-width="1" stroke-linecap="butt" stroke-linejoin="miter" stroke-miterlimit="10" stroke-dasharray="" stroke-dashoffset="0" font-family="none" font-weight="none" font-size="none" text-anchor="none" style="mix-blend-mode: normal"><g transform="scale(5.33333,5.33333)"><path d="M24,4c-11.02793,0 -20,8.97207 -20,20c0,11.02793 8.97207,20 20,20c11.02793,0 20,-8.97207 20,-20c0,-11.02793 -8.97207,-20 -20,-20zM24,7c9.40662,0 17,7.59339 17,17c0,8.38077 -6.03282,15.30637 -14,16.7207v-11.7207h3.625c0.504,0 0.93019,-0.37695 0.99219,-0.87695l0.375,-3c0.036,-0.284 -0.05414,-0.56916 -0.24414,-0.78516c-0.189,-0.215 -0.46105,-0.33789 -0.74805,-0.33789h-4v-3.5c0,-1.103 0.897,-2 2,-2h2c0.552,0 1,-0.447 1,-1v-3.375c0,-0.518 -0.39516,-0.95009 -0.91016,-0.99609c-0.059,-0.005 -1.46986,-0.12891 -3.25586,-0.12891c-4.407,0 -6.83398,2.61619 -6.83398,7.36719v3.63281h-4c-0.552,0 -1,0.447 -1,1v3c0,0.553 0.448,1 1,1h4v11.7207c-7.96718,-1.41433 -14,-8.33993 -14,-16.7207c0,-9.40661 7.59339,-17 17,-17z"></path></g></g></svg>